<svg width="293" height="293" viewBox="0 0 293 293" fill="none" xmlns="http://www.w3.org/2000/svg">
<path d="M88.703 160.401C67.8295 208 105.361 240.214 138.556 240.122C181.329 240.002 200.553 211.633 202.11 176.568C203.475 145.811 159.699 66.3401 153.223 73.7383C145.974 82.021 144.973 85.1382 135.7 97.4741C123.776 113.334 98.2934 138.535 88.7058 160.399L88.703 160.401Z" fill="#D1E8FF"/>
<path d="M142.412 278.027C166.584 278.027 186.18 272.652 186.18 266.022C186.18 259.392 166.584 254.017 142.412 254.017C118.239 254.017 98.6433 259.392 98.6433 266.022C98.6433 272.652 118.239 278.027 142.412 278.027Z" fill="#B0D7FF"/>
<path d="M118.16 84.5197C113.977 90.3797 116.419 96.2885 119.943 97.0536C124.571 98.0574 127.458 95.0867 129.224 90.3715C130.795 86.1773 129.479 74.0911 128.497 74.8995C127.395 75.8029 127.184 76.001 125.7 77.3955C123.792 79.1887 120.081 81.8284 118.16 84.5224V84.5197Z" fill="#B0D7FF"/>
<path d="M139.061 231.871C116.56 223.296 98.76 199.989 107.686 169.625C107.691 169.604 107.696 169.582 107.702 169.563C108.217 167.018 108.904 164.411 109.769 161.741C116.782 140.146 139.148 113.646 149.151 97.4279C151.438 93.7193 153.109 90.8381 154.484 88.3992C155.065 87.371 153.532 86.4702 152.837 87.4306C150.711 90.3715 148.231 93.8359 144.11 99.0367C132.23 114.029 106.839 137.843 97.2868 158.508C78.231 199.726 108.084 230.377 138.603 233.651C139.718 233.771 140.106 232.268 139.061 231.871Z" fill="#B0D7FF"/>
<path d="M136.134 132.268L150.816 151.145" stroke="black" stroke-width="4" stroke-linecap="round" stroke-linejoin="round"/>
<path d="M146.606 130.312L139.346 153.098" stroke="black" stroke-width="4" stroke-linecap="round" stroke-linejoin="round"/>
<path d="M168.811 130.621L177.775 152.791" stroke="black" stroke-width="4" stroke-linecap="round" stroke-linejoin="round"/>
<path d="M179.419 131.603L166.207 151.535" stroke="black" stroke-width="4" stroke-linecap="round" stroke-linejoin="round"/>
<path d="M141.335 198.638C136.139 198.863 134.066 201.261 133.307 200.331C131.763 198.437 138.491 186.245 149.194 182.84C165.385 177.688 183.415 194.959 182.379 197.39C182.01 198.255 179.5 196.606 174.408 197.827C172.11 198.377 170.434 198.933 168.578 199.59C163.489 201.391 157.976 201.627 152.745 200.295C148.738 199.273 145.833 198.442 141.332 198.638H141.335Z" fill="white"/>
</svg>
