<svg width="293" height="293" viewBox="0 0 293 293" fill="none" xmlns="http://www.w3.org/2000/svg">
<path d="M272.604 259.723C261.367 270.93 240.146 266.136 233.011 264.829C219.183 262.292 199.327 245.225 187.544 244.522C166.934 243.296 135.494 258.513 125.743 260.634C96.0091 267.105 67.9163 260.084 65.377 253.792C60.1166 240.757 107.178 222.816 91.2017 223.89C63.8659 225.727 57.6695 225.236 49.8453 224.251C31.0879 221.893 16.9696 211.329 18.3125 200.654C19.6554 189.978 37.2978 178.223 54.7042 185.594C85.6781 198.711 92.6124 183.974 96.3889 171.796C103.782 147.96 125.412 186.695 141.747 167.601C144.281 164.639 169.045 150.854 181.807 159.986C184.083 161.614 185.108 163.109 185.398 164.579C186.326 169.278 181.142 172.422 181.777 177.976C181.777 177.976 182.075 180.575 184.454 183.491C191.972 192.705 229.75 165.203 251.109 177.422C307.061 209.427 223.141 211.088 239.631 219.137C263.136 230.615 281.188 251.155 272.601 259.72L272.604 259.723Z" fill="#D1E8FF"/>
<path d="M153.35 206.95C152.561 208.206 152.067 209.644 152.146 211.126C152.151 211.234 152.154 211.345 152.154 211.457C152.154 216.006 147.235 219.699 141.166 219.699C138.141 219.699 135.401 218.782 133.413 217.298C131.752 216.058 129.617 215.697 127.591 216.136C126.622 216.345 125.597 216.459 124.539 216.459C118.47 216.459 113.548 212.77 113.548 208.217C113.548 203.665 118.47 199.975 124.539 199.975C124.747 199.975 124.954 199.981 125.16 199.989C126.69 200.054 128.182 199.596 129.446 198.733C132.029 196.972 135.86 195.857 140.135 195.857C147.911 195.857 154.216 199.547 154.216 204.099C154.216 205.103 153.909 206.063 153.35 206.953V206.95Z" fill="#010101"/>
<path d="M189.446 209.897C188.887 209.921 188.337 209.905 187.799 209.845C185.814 209.631 183.803 209.997 181.991 210.838C181.893 210.884 181.793 210.928 181.693 210.971C176.975 213.006 171.888 211.722 170.325 208.103C169.796 206.883 169.739 205.55 170.076 204.246C170.653 202.005 170.55 199.671 169.864 197.463C169.633 196.72 169.601 195.968 169.799 195.244C170.621 192.246 175.097 190.862 179.802 192.151C180.526 192.349 181.215 192.602 181.855 192.892C183.784 193.771 185.898 194.189 188.006 193.953C188.244 193.925 188.486 193.906 188.73 193.896C193.86 193.665 198.179 197.059 198.38 201.476C198.578 205.895 194.579 209.663 189.449 209.894L189.446 209.897Z" fill="#010101"/>
<path d="M148.549 207.66C149.372 207.094 148.776 204.797 147.218 202.53C145.659 200.264 143.728 198.885 142.905 199.451C142.081 200.017 142.677 202.314 144.235 204.581C145.794 206.848 147.725 208.226 148.549 207.66Z" fill="white"/>
<path d="M193.378 204.076C194.154 203.543 193.855 201.763 192.712 200.1C191.569 198.437 190.013 197.521 189.238 198.054C188.462 198.587 188.761 200.367 189.904 202.03C191.048 203.693 192.603 204.609 193.378 204.076Z" fill="white"/>
<path d="M38.3748 193.825C40.8328 191.53 43.2066 190.626 46.4595 189.769L57.0807 188.556C39.7178 182.892 28.5648 192.1 28.5648 192.1C9.20235 208.367 38.8171 221.288 69.3053 223.179C70.4204 223.247 70.8165 222.65 69.7774 222.468C47.3439 218.589 27.3738 208.386 36.5246 196.307L38.3721 193.825H38.3748Z" fill="#B0D7FF"/>
<path d="M155.754 229.97L159.085 225.209C159.454 224.682 160.057 224.37 160.697 224.37H173.204C173.442 224.37 173.678 224.327 173.904 224.243L181.253 221.451C181.638 221.305 182.059 221.283 182.455 221.389L186.009 222.33C186.872 222.558 187.474 223.339 187.474 224.232V226.891C187.474 227.588 187.105 228.233 186.503 228.586L185.176 229.367C184.84 229.566 184.449 229.661 184.058 229.636L176.929 229.199C176.676 229.183 176.424 229.218 176.185 229.297L171.915 230.721C171.695 230.795 171.489 230.906 171.307 231.052L168.961 232.93C168.521 233.28 167.954 233.426 167.401 233.334L160.968 232.241C160.653 232.186 160.331 232.211 160.027 232.311L157.979 232.981C156.183 233.567 154.671 231.532 155.757 229.983L155.754 229.97Z" fill="white"/>
</svg>
