<svg width="293" height="293" viewBox="0 0 293 293" fill="none" xmlns="http://www.w3.org/2000/svg">
<path d="M67.9977 134.305C39.0775 200.255 91.0742 244.886 137.067 244.755C196.329 244.59 222.965 205.284 225.119 156.703C227.01 114.091 166.356 3.9826 157.387 14.2349C147.344 25.7134 145.957 30.0298 133.109 47.1214C116.59 69.0964 81.2831 104.01 67.9977 134.305Z" fill="#A1E8FF"/>
<path d="M126.218 182.146C126.218 188.708 138.787 201.348 149.981 201.348C161.174 201.348 172.053 189.443 172.053 182.881C172.053 176.318 162.867 177.732 151.674 177.732C140.48 177.732 126.218 175.583 126.218 182.146Z" fill="white"/>
<path d="M137.07 281.337C150.784 281.337 161.901 277.447 161.901 272.647C161.901 267.848 150.784 263.958 137.07 263.958C123.356 263.958 112.238 267.848 112.238 272.647C112.238 277.447 123.356 281.337 137.07 281.337Z" fill="#D6FFFF"/>
<path d="M103.348 30.2333C95.3064 41.5002 99.9998 52.8567 106.777 54.3271C115.678 56.2587 121.226 50.5452 124.62 41.4812C127.639 33.4183 125.114 10.1817 123.22 11.7336C121.101 13.4726 120.697 13.8497 117.843 16.5328C114.175 19.981 107.043 25.0569 103.35 30.2333H103.348Z" fill="#D6FFFF"/>
<path d="M129.851 237.685C99.932 225.775 76.2695 193.413 88.1333 151.253C88.1414 151.223 88.1496 151.193 88.155 151.164C88.8387 147.629 89.7529 144.009 90.9032 140.301C100.228 110.314 129.964 73.5186 143.266 50.9983C146.307 45.8491 148.529 41.8474 150.358 38.4617C151.131 37.0346 149.091 35.784 148.168 37.1187C145.342 41.2018 142.043 46.0146 136.565 53.2337C120.77 74.0503 87.0129 107.119 74.3108 135.814C48.9744 193.049 88.665 235.61 129.243 240.157C130.727 240.322 131.24 238.236 129.853 237.685H129.851Z" fill="#D6FFFF"/>
<path d="M147.279 139.924C147.376 140.119 138.353 129.487 111.657 140.515C111.397 140.624 111.158 140.323 111.321 140.092C114.653 135.339 132.894 111.619 147.279 139.924Z" fill="#010101"/>
<path d="M157.509 139.924C157.412 140.119 166.435 129.487 193.13 140.515C193.391 140.624 193.63 140.323 193.467 140.092C190.135 135.339 171.893 111.619 157.509 139.924Z" fill="#010101"/>
<path d="M83.5727 72.8416C85.4316 68.8166 76.2324 60.609 63.0257 54.5094C49.8189 48.4099 37.6058 46.7281 35.7468 50.7531C33.8878 54.7781 43.087 62.9857 56.2938 69.0853C69.5005 75.1849 81.7137 76.8666 83.5727 72.8416Z" fill="#D6FFFF"/>
<path d="M47.0289 93.1234C58.1213 91.6985 66.7613 87.8027 66.327 84.4217C65.8927 81.0408 56.5485 79.4552 45.4561 80.8801C34.3638 82.305 25.7237 86.2009 26.158 89.5818C26.5923 92.9627 35.9365 94.5484 47.0289 93.1234Z" fill="#D6FFFF"/>
<path d="M243.098 79.6895C255.897 72.775 264.564 64.0074 262.457 60.1067C260.349 56.206 248.265 58.6493 235.466 65.5638C222.667 72.4784 214 81.2459 216.108 85.1466C218.215 89.0473 230.299 86.6041 243.098 79.6895Z" fill="#D6FFFF"/>
<path d="M232.532 49.8226C238.041 40.09 240.102 30.8389 237.135 29.1599C234.169 27.4809 227.298 34.0096 221.789 43.7423C216.281 53.475 214.22 62.726 217.186 64.405C220.153 66.0841 227.023 59.5553 232.532 49.8226Z" fill="#D6FFFF"/>
</svg>
