<svg width="293" height="293" viewBox="0 0 293 293" fill="none" xmlns="http://www.w3.org/2000/svg">
<path d="M72.0861 134.305C43.166 200.255 95.1626 244.886 141.155 244.755C200.417 244.59 227.053 205.284 229.207 156.703C231.098 114.091 170.445 3.9826 161.476 14.2349C151.432 25.7134 150.046 30.0298 137.197 47.1214C120.678 69.0964 85.3715 104.01 72.0861 134.305Z" fill="#A1E8FF"/>
<path d="M134.867 148.304C139.621 148.304 143.475 141.633 143.475 133.404C143.475 125.176 139.621 118.505 134.867 118.505C130.113 118.505 126.259 125.176 126.259 133.404C126.259 141.633 130.113 148.304 134.867 148.304Z" fill="#010101"/>
<path d="M174.595 147.973C179.35 147.973 183.204 141.302 183.204 133.074C183.204 124.845 179.35 118.174 174.595 118.174C169.841 118.174 165.987 124.845 165.987 133.074C165.987 141.302 169.841 147.973 174.595 147.973Z" fill="#010101"/>
<path d="M133.539 139.715C136.104 139.501 137.884 135.728 137.513 131.289C137.143 126.85 134.763 123.425 132.198 123.639C129.633 123.853 127.853 127.625 128.224 132.065C128.594 136.504 130.974 139.929 133.539 139.715Z" fill="white"/>
<path d="M172.939 139.716C175.504 139.502 177.283 135.729 176.913 131.29C176.542 126.851 174.163 123.426 171.597 123.64C169.032 123.854 167.253 127.626 167.623 132.066C167.994 136.505 170.374 139.93 172.939 139.716Z" fill="white"/>
<path d="M130.304 182.146C130.304 188.708 142.873 201.348 154.066 201.348C165.26 201.348 176.139 189.443 176.139 182.881C176.139 176.318 166.953 177.732 155.759 177.732C144.566 177.732 130.304 175.583 130.304 182.146Z" fill="white"/>
<path d="M141.155 281.337C154.87 281.337 165.987 277.447 165.987 272.647C165.987 267.848 154.87 263.958 141.155 263.958C127.441 263.958 116.324 267.848 116.324 272.647C116.324 277.447 127.441 281.337 141.155 281.337Z" fill="#D6FFFF"/>
<path d="M107.436 30.2333C99.3948 41.5002 104.088 52.8567 110.865 54.3271C119.766 56.2587 125.314 50.5452 128.708 41.4812C131.728 33.4183 129.202 10.1817 127.308 11.7336C125.19 13.4726 124.785 13.8497 121.931 16.5328C118.263 19.981 111.131 25.0569 107.439 30.2333H107.436Z" fill="#D6FFFF"/>
<path d="M133.936 237.685C104.018 225.775 80.3553 193.413 92.219 151.253C92.2272 151.223 92.2353 151.193 92.2407 151.164C92.9244 147.629 93.8387 144.009 94.989 140.301C104.313 110.314 134.05 73.5186 147.352 50.9983C150.393 45.8491 152.615 41.8474 154.444 38.4617C155.217 37.0346 153.177 35.784 152.254 37.1187C149.427 41.2018 146.128 46.0146 140.651 53.2337C124.856 74.0503 91.0986 107.119 78.3965 135.814C53.0601 193.049 92.7508 235.61 133.329 240.157C134.813 240.322 135.325 238.236 133.939 237.685H133.936Z" fill="#D6FFFF"/>
</svg>
