<svg width="24" height="24" viewBox="0 0 24 24" fill="none" xmlns="http://www.w3.org/2000/svg">
<path d="M9.35059 3.00223C10.6878 1.66572 12.8563 1.66547 14.1934 3.00223L19.7383 8.54618C20.2539 9.06175 20.5438 9.76137 20.5439 10.4905V19.4651C20.5439 20.8635 19.4099 21.9968 18.0117 21.9973H5.53223C4.13381 21.9971 3 20.8637 3 19.4651V10.4905C3.00017 9.76131 3.28998 9.06176 3.80566 8.54618L9.35059 3.00223ZM13.1328 4.06278C12.3816 3.31167 11.1625 3.31193 10.4111 4.06278L4.86621 9.60672C4.6319 9.841 4.50017 10.1592 4.5 10.4905V19.4651C4.5 20.035 4.96197 20.4971 5.53223 20.4973H18.0117C18.5817 20.4968 19.0439 20.0348 19.0439 19.4651V10.4905C19.0438 10.1592 18.912 9.84099 18.6777 9.60672L13.1328 4.06278ZM10.4443 8.42997C11.0999 7.52928 12.4442 7.52901 13.0996 8.42997L15.2969 11.4514C15.8102 12.1571 16.0868 13.0076 16.0869 13.8802C16.0869 15.4947 15.1455 16.9612 13.6777 17.6341L13.5703 17.6839C12.4289 18.2069 11.1151 18.2068 9.97363 17.6839L9.86621 17.6341C8.39817 16.9613 7.45703 15.4949 7.45703 13.8802C7.45714 13.0076 7.73375 12.1571 8.24707 11.4514L10.4443 8.42997ZM11.8867 9.3118C11.8304 9.23445 11.7138 9.23473 11.6572 9.3118L9.45996 12.3343C9.1332 12.7835 8.95714 13.3247 8.95703 13.8802C8.95703 14.9082 9.55629 15.8424 10.4912 16.2708L10.5986 16.3206C11.3434 16.6618 12.2006 16.6618 12.9453 16.3206L13.0527 16.2708C13.9874 15.8423 14.5869 14.9081 14.5869 13.8802C14.5868 13.3247 14.4107 12.7835 14.084 12.3343L11.8867 9.3118Z" fill="#00838C"/>
</svg>
