<svg width="32" height="32" viewBox="0 0 32 32" fill="none" xmlns="http://www.w3.org/2000/svg">
<g clip-path="url(#clip0_17_66)">
<path d="M13.5605 5.2207C15.1889 3.59244 17.8287 3.59245 19.457 5.2207L26.1396 11.9023C26.7021 12.4649 27.0185 13.228 27.0186 14.0234V24.8174C27.0185 26.5366 25.6245 27.9305 23.9053 27.9307H9.11328C7.39397 27.9307 6.00003 26.5367 6 24.8174V14.0234C6.00008 13.2279 6.31637 12.4649 6.87891 11.9023L13.5605 5.2207ZM18.043 6.63477C17.1957 5.78756 15.8219 5.78756 14.9746 6.63477L8.29297 13.3164C8.1055 13.5039 8.00008 13.7583 8 14.0234V24.8174C8.00003 25.4321 8.49854 25.9307 9.11328 25.9307H23.9053C24.5199 25.9305 25.0185 25.432 25.0186 24.8174V14.0234C25.0185 13.7584 24.913 13.5039 24.7256 13.3164L18.043 6.63477ZM14.8457 11.6689C15.667 10.5398 17.3506 10.5399 18.1719 11.6689L20.7773 15.251C21.3997 16.1067 21.7353 17.1382 21.7354 18.1963C21.7353 20.1539 20.594 21.9314 18.8145 22.7471L18.6865 22.8066C17.304 23.4402 15.7135 23.4403 14.3311 22.8066L14.2031 22.7471C12.4238 21.9313 11.2833 20.1537 11.2832 18.1963C11.2832 17.1382 11.6179 16.1067 12.2402 15.251L14.8457 11.6689ZM16.4824 12.8271C16.4779 12.8294 16.4711 12.8334 16.4629 12.8447L13.8574 16.4277C13.4838 16.9415 13.2832 17.561 13.2832 18.1963C13.2833 19.3718 13.9685 20.4399 15.0371 20.9297L15.165 20.9883C16.0184 21.3793 17.0001 21.3794 17.8535 20.9883L17.9814 20.9297C19.0501 20.4399 19.7353 19.3718 19.7354 18.1963C19.7353 17.5609 19.5338 16.9416 19.1602 16.4277L16.5547 12.8447C16.5465 12.8336 16.5396 12.8294 16.5352 12.8271C16.529 12.8242 16.5197 12.8223 16.5088 12.8223C16.4977 12.8223 16.4885 12.8242 16.4824 12.8271Z" fill="black"/>
</g>
<defs>
<clipPath id="clip0_17_66">
<rect width="32" height="32" fill="white"/>
</clipPath>
</defs>
</svg>
