<svg width="299" height="274" viewBox="0 0 299 274" fill="none" xmlns="http://www.w3.org/2000/svg">
<path d="M141.782 -14.1334C155.554 -20.856 172.59 -22.013 186.399 -14.7788C195.418 -10.4971 201.475 -2.26475 207.28 5.51606C212.837 13.0349 222.822 17.2363 232.037 15.1271C243.066 12.7104 250.845 3.60099 261.366 -0.0817115C277.33 -6.76454 296.039 -6.51694 311.74 0.794761C333.197 11.4799 348.339 33.6221 350.706 57.4773C352.79 74.6211 346.274 92.7766 332.923 103.949C325.587 109.904 317.302 116.135 314.959 125.843C313.026 133.499 317.716 140.544 321.109 147.047C327.792 159.338 327.517 174.548 322.006 187.204C312.675 207.321 288.218 219.788 266.615 213.365C259.097 211.641 252.902 204.956 244.814 205.928C237.436 206.768 232.99 213.745 231.458 220.4C229.251 229.445 226.216 238.51 220.239 245.811C208.276 260.992 189.659 271.385 170.108 271.478C151.329 272.215 132.113 260.04 126.863 241.621C123.708 232.879 125.449 223.324 122.602 214.515C118.711 200.314 107.324 187.033 92.2666 184.64C83.4482 182.873 74.8844 186.511 67.0465 190.128C56.7948 195.017 44.6061 195.49 33.9163 191.757C22.2603 187.327 12.4078 178.392 6.78927 167.269C-0.468853 153.03 -1.84094 136.096 2.35586 120.737C7.10258 102.209 20.162 85.931 37.3556 77.5289C48.4315 72.0523 61.0192 70.6582 73.2271 71.1821C87.0461 71.8378 101.827 65.1771 108.018 52.3327C112.314 43.5051 110.098 33.47 112.077 24.1438C114.952 7.51685 126.674 -6.91171 141.781 -14.1375L141.782 -14.1334Z" fill="#14B8C4" fill-opacity="0.1"/>
<path d="M217.042 -21.9291C224.999 -28.9658 239.089 -22.0613 238.559 -11.5151C238.83 -2.37597 227.935 3.88475 219.986 -0.189615C211.478 -3.57886 209.933 -16.3533 217.042 -21.9291Z" fill="#14B8C4" fill-opacity="0.1"/>
<path d="M80.6732 22.7077C87.6968 17.6818 98.599 23.6465 98.2191 32.22C98.5379 40.5811 88.2982 46.8956 81.111 42.3632C73.8717 38.4328 73.7089 26.9651 80.6692 22.7089L80.6732 22.7077Z" fill="#14B8C4" fill-opacity="0.1"/>
<path d="M77.2066 203.023C86.0085 197.088 97.9047 201.476 103.989 209.243C109.846 216.302 112.843 226.029 110.89 235.107C109.522 241.686 104.665 247.793 98.0022 249.482C92.1547 250.975 85.6727 249.492 80.9059 245.827C73.4803 240.306 68.8197 231.355 68.3098 222.147C67.9947 214.863 70.8397 207.041 77.2066 203.023Z" fill="#14B8C4" fill-opacity="0.1"/>
<path d="M112.01 260.816C115.086 256.453 122.621 257.021 125.041 261.813C128.472 266.675 124.26 274.234 118.295 273.765C112.106 273.991 108.206 265.586 112.006 260.817L112.01 260.816Z" fill="#14B8C4" fill-opacity="0.1"/>
</svg>
