<svg width="24" height="24" viewBox="0 0 24 24" fill="none" xmlns="http://www.w3.org/2000/svg">
<path d="M9.07715 2.78154C11.1546 1.73958 13.6013 1.73939 15.6787 2.78154C18.1782 4.03566 19.7557 6.59944 19.7559 9.40068V9.75322C19.7559 11.3263 19.2917 12.8658 18.4219 14.1751L13.6914 21.2933C13.0666 22.2328 11.6881 22.2331 11.0635 21.2933L6.33398 14.1751C5.46395 12.8657 5 11.3265 5 9.75322V9.40068C5.00016 6.59931 6.57746 4.0356 9.07715 2.78154ZM15.0059 4.12236C13.3518 3.29256 11.4042 3.29277 9.75 4.12236C7.75917 5.12109 6.50016 7.16479 6.5 9.40068V9.75322C6.5 11.0314 6.87758 12.2819 7.58398 13.345L12.3135 20.4622C12.3447 20.5092 12.4112 20.5092 12.4424 20.4622L17.1719 13.345C17.8781 12.2819 18.2559 11.0313 18.2559 9.75322V9.40068C18.2557 7.16489 16.9965 5.12114 15.0059 4.12236ZM10.5596 6.19463C11.704 5.62074 13.0519 5.62053 14.1963 6.19463C15.5732 6.88549 16.4412 8.29726 16.4414 9.83916V10.0159C16.4414 10.8761 16.1876 11.7178 15.7119 12.4339L13.6914 15.4739C13.0667 16.414 11.6881 16.414 11.0635 15.4739L9.04395 12.4339C8.56807 11.7177 8.31351 10.8762 8.31348 10.0159V9.83916C8.31363 8.29716 9.18253 6.88544 10.5596 6.19463ZM13.5234 7.53545C12.8024 7.17377 11.9535 7.174 11.2324 7.53545C10.3643 7.97096 9.81363 8.86267 9.81348 9.83916V10.0159C9.81351 10.5812 9.98072 11.1338 10.293 11.6038L12.3135 14.6438C12.3447 14.6908 12.4112 14.6908 12.4424 14.6438L14.4629 11.6038C14.7749 11.1339 14.9414 10.581 14.9414 10.0159V9.83916C14.9412 8.86275 14.3914 7.971 13.5234 7.53545Z" fill="black"/>
</svg>
