<svg width="24" height="24" viewBox="0 0 24 24" fill="none" xmlns="http://www.w3.org/2000/svg">
<path d="M12.7147 2C13.9572 2.00017 14.9647 3.00747 14.9647 4.25V5.22754L15.5936 4.70312C16.5476 3.90701 17.9701 4.03169 18.7713 4.98145L19.8719 6.28516C20.673 7.23495 20.5485 8.65012 19.5946 9.44629L18.7625 10.1396L20.2772 10.502C21.5075 10.7965 22.2508 12.047 21.9217 13.2686L21.4901 14.8691C21.1668 16.069 19.931 16.7819 18.7303 16.4619L17.8436 16.2256L18.6356 17.9326C19.1565 19.0565 18.6694 20.3869 17.5457 20.9082L15.9295 21.6582C14.8341 22.166 13.5285 21.7205 12.9725 20.6484L12.1951 19.1475L11.1795 20.8203C10.5826 21.8023 9.34082 22.1812 8.29866 21.6982L6.58577 20.9033C5.46812 20.3848 4.97941 19.065 5.48909 17.9434L6.28304 16.1934L5.27815 16.4619C4.07752 16.7818 2.84263 16.0689 2.51937 14.8691L2.07796 13.2305C1.75472 12.0306 2.4661 10.7985 3.66683 10.4785L4.75472 10.1875L3.86702 9.44629C2.91307 8.65005 2.7894 7.23492 3.59065 6.28516L4.69026 4.98145C5.49154 4.03165 6.91494 3.9069 7.86897 4.70312L8.74397 5.43262V4.25C8.74397 3.00736 9.75133 2 10.994 2H12.7147ZM10.994 3.5C10.5798 3.5 10.244 3.83579 10.244 4.25V6.66309C10.2439 6.97444 10.0532 7.24015 9.78304 7.35352C9.5107 7.63001 9.0664 7.65689 8.76351 7.4043L6.9012 5.84961C6.58319 5.58433 6.10868 5.62583 5.84163 5.94238L4.74202 7.24609C4.47502 7.56258 4.51611 8.03434 4.83382 8.2998L6.69612 9.85449C6.89673 10.0221 6.98653 10.2716 6.95882 10.5127C6.9903 10.8682 6.76402 11.2047 6.40706 11.2998L4.05647 11.9268C3.65637 12.0335 3.41956 12.4439 3.52718 12.8438L3.96858 14.4824C4.07633 14.8824 4.48826 15.1203 4.88851 15.0137L7.23909 14.3877C7.60619 14.29 7.98187 14.4821 8.12483 14.8232C8.28354 15.0344 8.32784 15.3212 8.21077 15.5791L6.85726 18.5586C6.68735 18.9325 6.84988 19.3731 7.22249 19.5459L8.93538 20.3398C9.28267 20.5006 9.69643 20.374 9.89534 20.0469L11.5867 17.2617C11.5889 17.2577 11.5914 17.2539 11.5936 17.25L11.6053 17.2324C11.6209 17.2067 11.638 17.1823 11.6561 17.1592C11.667 17.1452 11.6783 17.1314 11.6903 17.1182C11.6958 17.112 11.7021 17.1065 11.7078 17.1006C11.7632 17.0434 11.8273 16.9926 11.9022 16.9541C11.9536 16.9277 12.0066 16.9082 12.0604 16.8945C12.0828 16.8887 12.1059 16.8865 12.1287 16.8828C12.1516 16.8792 12.1742 16.8745 12.1971 16.873C12.2315 16.8706 12.266 16.8727 12.3006 16.875C12.3133 16.876 12.3261 16.8754 12.3387 16.877C12.4413 16.8891 12.5435 16.921 12.6375 16.9775C12.7356 17.0366 12.8126 17.1166 12.8719 17.2061C12.8871 17.2289 12.9019 17.2524 12.9149 17.2773L12.9207 17.2891C12.9241 17.296 12.9283 17.3025 12.9315 17.3096L14.3075 19.9639C14.4929 20.3207 14.9279 20.4688 15.2928 20.2998L16.909 19.5498C17.2835 19.376 17.446 18.9322 17.2723 18.5576L15.8934 15.584C15.8345 15.4568 15.8172 15.3221 15.8309 15.1924C15.8214 15.1032 15.8257 15.0109 15.8504 14.9189C15.9582 14.519 16.3701 14.281 16.7703 14.3877L19.1209 15.0137C19.521 15.1203 19.933 14.8831 20.0408 14.4834L20.4725 12.8818C20.5821 12.4747 20.3338 12.0581 19.9237 11.96L17.1854 11.3047C16.9773 11.2548 16.8117 11.1218 16.7127 10.9502C16.6994 10.9367 16.6861 10.9229 16.6737 10.9082C16.4067 10.5917 16.4477 10.1199 16.7655 9.85449L18.6278 8.2998C18.9457 8.03438 18.9866 7.56267 18.7196 7.24609L17.62 5.94238C17.3529 5.62578 16.8784 5.5842 16.5604 5.84961L14.6981 7.40332C14.3801 7.66848 13.9056 7.6279 13.6385 7.31152C13.5001 7.14744 13.4457 6.94132 13.4686 6.74414C13.4657 6.71752 13.4647 6.69047 13.4647 6.66309V4.25C13.4647 3.83589 13.1287 3.50017 12.7147 3.5H10.994ZM12.0565 8.2334C14.1352 8.33823 15.7879 10.048 15.7879 12.1416L15.783 12.3428C15.6776 14.4101 13.959 16.0545 11.8543 16.0547L11.6512 16.0498C9.63986 15.9481 8.02667 14.3434 7.92464 12.3428L7.91976 12.1416C7.91976 9.98057 9.68167 8.22868 11.8543 8.22852L12.0565 8.2334ZM11.8543 9.72852C10.5025 9.72868 9.41976 10.8166 9.41976 12.1416C9.41995 13.4664 10.5026 14.5545 11.8543 14.5547C13.206 14.5545 14.2877 13.4664 14.2879 12.1416C14.2879 10.8166 13.2061 9.72872 11.8543 9.72852Z" fill="#00838C"/>
</svg>
