<svg width="32" height="32" viewBox="0 0 32 32" fill="none" xmlns="http://www.w3.org/2000/svg">
<g clip-path="url(#clip0_17_404)">
<path d="M16.6876 4.01855C18.3442 4.01881 19.6876 5.36186 19.6876 7.01855V7.75391L20.0928 7.41309C21.3603 6.34631 23.2495 6.51178 24.3126 7.78223L25.3487 9.02051C26.4117 10.2913 26.246 12.1869 24.9786 13.2539L24.3106 13.8145L25.6886 14.1475C27.3284 14.5433 28.3221 16.2138 27.8868 17.8438L27.4825 19.3584C27.0549 20.9591 25.4107 21.9086 23.8106 21.4785L23.1886 21.3105L23.9483 22.9639C24.6381 24.4646 23.9861 26.2442 22.4903 26.9443L20.9552 27.6621C19.4965 28.3443 17.7627 27.7513 17.0264 26.3193L16.2823 24.873L15.2745 26.5488C14.4838 27.8615 12.8309 28.3643 11.4425 27.7148L9.78132 26.9375C8.2935 26.2413 7.63906 24.4763 8.31355 22.9785L9.08211 21.2725L8.31648 21.4785C6.71667 21.9085 5.07343 20.9597 4.64558 19.3594L4.22664 17.793C3.7991 16.1923 4.74982 14.5464 6.34968 14.1162L7.23933 13.877L6.4991 13.2539C5.23164 12.1869 5.06603 10.2923 6.12898 9.02148L7.16414 7.7832C8.22714 6.51236 10.1163 6.34719 11.3839 7.41406L12.0831 8.00195V7.01855C12.0831 5.36171 13.4262 4.01855 15.0831 4.01855H16.6876ZM15.0831 6.01855C14.5308 6.01855 14.0831 6.46628 14.0831 7.01855V9.70312C14.0831 10.1078 13.8419 10.4549 13.4962 10.6123C13.1343 10.9758 12.5485 11.0082 12.1485 10.6719L10.1007 8.94824C9.67814 8.59265 9.04874 8.64769 8.69441 9.07129L7.65925 10.3096C7.305 10.7331 7.35993 11.3641 7.7823 11.7197L9.83015 13.4443C10.0894 13.6629 10.2092 13.9852 10.1817 14.2998C10.224 14.7751 9.92183 15.2264 9.44539 15.3545L6.86629 16.0479C6.33303 16.1912 6.01594 16.7399 6.15828 17.2734L6.57625 18.8398C6.7189 19.3732 7.26761 19.6902 7.80086 19.5469L10.38 18.8535C10.8662 18.7228 11.3635 18.9742 11.5557 19.4238C11.7589 19.7053 11.8108 20.084 11.6583 20.4229L10.1358 23.8047C9.91099 24.304 10.1291 24.892 10.6251 25.124L12.2862 25.9014C12.7488 26.1175 13.2989 25.9497 13.5626 25.5127L15.4962 22.3037C15.6128 22.1101 15.7848 21.9705 15.9796 21.8926C15.9839 21.8908 15.9879 21.8884 15.9923 21.8867C16.0166 21.8774 16.0415 21.8697 16.0665 21.8623C16.0746 21.8599 16.0828 21.8577 16.0909 21.8555C16.1145 21.8491 16.1382 21.8435 16.1622 21.8389C16.17 21.8373 16.1778 21.8363 16.1856 21.835C16.208 21.8312 16.2304 21.8284 16.253 21.8262C16.2638 21.8251 16.2745 21.823 16.2852 21.8223C16.3037 21.821 16.3223 21.8215 16.3409 21.8213C16.3562 21.8211 16.3715 21.8208 16.3868 21.8213C16.3988 21.8217 16.4109 21.8224 16.4229 21.8232C16.4452 21.8248 16.4673 21.827 16.4893 21.8301C16.4943 21.8308 16.4991 21.8322 16.504 21.833C16.5302 21.837 16.5563 21.8416 16.5821 21.8477C16.5935 21.8504 16.6049 21.8533 16.6163 21.8564C16.6344 21.8614 16.6522 21.8671 16.67 21.873C16.6821 21.8771 16.6942 21.8812 16.7061 21.8857C16.9287 21.9699 17.1227 22.1329 17.2403 22.3613L18.8028 25.4014C19.0484 25.8782 19.6264 26.0758 20.1124 25.8486L21.6466 25.1299C22.145 24.8965 22.3625 24.3038 22.1329 23.8037L20.5821 20.4297C20.5056 20.2631 20.4787 20.0864 20.4952 19.916C20.4837 19.7996 20.4916 19.6792 20.5235 19.5596C20.666 19.0261 21.2139 18.7095 21.7471 18.8525L24.3272 19.5459C24.8604 19.6891 25.4083 19.3732 25.5509 18.8398L25.9552 17.3242C26.1001 16.781 25.7691 16.2238 25.2227 16.0918L22.1905 15.3604C21.9175 15.2944 21.6976 15.1224 21.5645 14.8984C21.5509 14.884 21.5364 14.8699 21.5235 14.8545C21.1698 14.431 21.2255 13.7989 21.6475 13.4434L23.6954 11.7197C24.1177 11.364 24.1727 10.7322 23.8184 10.3086L22.7833 9.07031C22.4289 8.6467 21.7986 8.59164 21.3761 8.94727L19.3282 10.6709C18.9057 11.0262 18.2762 10.9714 17.9219 10.5479C17.7449 10.3361 17.6701 10.0727 17.6925 9.81738V9.80566C17.689 9.77196 17.6876 9.73774 17.6876 9.70312V7.01855C17.6876 6.46643 17.2396 6.01881 16.6876 6.01855H15.0831ZM15.8848 11.5771C18.4638 11.5772 20.5553 13.6747 20.5557 16.2617L20.5489 16.5029C20.4239 18.9784 18.3835 20.9472 15.8848 20.9473L15.6446 20.9414C13.1771 20.8158 11.2149 18.7682 11.2149 16.2617C11.2153 13.6747 13.3059 11.5773 15.8848 11.5771ZM15.8848 13.5771C14.4164 13.5773 13.2153 14.7734 13.2149 16.2617C13.2149 17.7504 14.4162 18.9471 15.8848 18.9473C17.3535 18.9472 18.5557 17.7505 18.5557 16.2617C18.5553 14.7733 17.3533 13.5772 15.8848 13.5771Z" fill="black"/>
</g>
<defs>
<clipPath id="clip0_17_404">
<rect width="32" height="32" fill="white"/>
</clipPath>
</defs>
</svg>
