<svg width="32" height="32" viewBox="0 0 32 32" fill="none" xmlns="http://www.w3.org/2000/svg">
<g clip-path="url(#clip0_17_100)">
<path d="M27.041 26.041C27.5931 26.0412 28.0409 26.4889 28.041 27.041C28.0408 27.593 27.593 28.0408 27.041 28.041H4.91992C4.36785 28.0409 3.92011 27.5931 3.91992 27.041C3.92003 26.4889 4.3678 26.0411 4.91992 26.041H27.041ZM6.99414 11.2939C8.69147 11.2942 10.0672 12.6698 10.0674 14.3672V21.2803C10.0673 22.9777 8.69151 24.3533 6.99414 24.3535C5.29669 24.3534 3.92004 22.9777 3.91992 21.2803V14.3672C3.9201 12.6698 5.29672 11.2941 6.99414 11.2939ZM15.9697 7.60645C17.6673 7.60645 19.0438 8.98313 19.0439 10.6807V21.2803C19.0438 22.9778 17.6673 24.3535 15.9697 24.3535C14.2725 24.3532 12.8966 22.9776 12.8965 21.2803V10.6807C12.8966 8.98334 14.2725 7.60679 15.9697 7.60645ZM24.9668 3.91992C26.6644 3.91992 28.0409 5.29661 28.041 6.99414V21.2803C28.0409 22.9778 26.6643 24.3535 24.9668 24.3535C23.2694 24.3534 21.8927 22.9777 21.8926 21.2803V6.99414C21.8927 5.29669 23.2694 3.92006 24.9668 3.91992ZM6.99414 13.2939C6.40129 13.2941 5.9201 13.7744 5.91992 14.3672V21.2803C5.92004 21.8732 6.40126 22.3534 6.99414 22.3535C7.58694 22.3533 8.06726 21.8731 8.06738 21.2803V14.3672C8.06721 13.7744 7.5869 13.2942 6.99414 13.2939ZM15.9697 9.60645C15.377 9.60679 14.8966 10.0879 14.8965 10.6807V21.2803C14.8966 21.873 15.377 22.3532 15.9697 22.3535C16.5627 22.3535 17.0438 21.8732 17.0439 21.2803V10.6807C17.0438 10.0877 16.5627 9.60645 15.9697 9.60645ZM24.9668 5.91992C24.3739 5.92006 23.8927 6.40126 23.8926 6.99414V21.2803C23.8927 21.8731 24.3739 22.3534 24.9668 22.3535C25.5598 22.3535 26.0409 21.8732 26.041 21.2803V6.99414C26.0409 6.40118 25.5598 5.91992 24.9668 5.91992Z" fill="black"/>
</g>
<defs>
<clipPath id="clip0_17_100">
<rect width="32" height="32" fill="white"/>
</clipPath>
</defs>
</svg>
