<svg width="24" height="24" viewBox="0 0 24 24" fill="none" xmlns="http://www.w3.org/2000/svg">
<path d="M21.248 20.498C21.662 20.4983 21.9979 20.8341 21.998 21.248C21.9978 21.6619 21.6619 21.9978 21.248 21.998H2.75C2.33605 21.9979 2.00023 21.662 2 21.248C2.00013 20.834 2.33599 20.4982 2.75 20.498H21.248ZM4.48438 8.16602C5.85615 8.16614 6.96862 9.27862 6.96875 10.6504V16.4307C6.96868 17.8025 5.85619 18.9149 4.48438 18.915C3.11259 18.9149 2.00007 17.8025 2 16.4307V10.6504C2.00013 9.27863 3.11262 8.16616 4.48438 8.16602ZM11.9902 5.08301C13.3621 5.08301 14.4745 6.19553 14.4746 7.56738V16.4307C14.4745 17.8026 13.3621 18.915 11.9902 18.915C10.6185 18.9148 9.50593 17.8024 9.50586 16.4307V7.56738C9.50599 6.19566 10.6185 5.08321 11.9902 5.08301ZM19.5137 2C20.8855 2.00011 21.9979 3.1126 21.998 4.48438V16.4307C21.998 17.8025 20.8855 18.9149 19.5137 18.915C18.1419 18.9149 17.0294 17.8025 17.0293 16.4307V4.48438C17.0294 3.11262 18.1419 2.00015 19.5137 2ZM4.48438 9.66602C3.94105 9.66616 3.50013 10.1071 3.5 10.6504V16.4307C3.50007 16.974 3.94101 17.4149 4.48438 17.415C5.02776 17.4149 5.46868 16.9741 5.46875 16.4307V10.6504C5.46862 10.107 5.02772 9.66614 4.48438 9.66602ZM11.9902 6.58301C11.4469 6.58321 11.006 7.02409 11.0059 7.56738V16.4307C11.0059 16.974 11.4469 17.4148 11.9902 17.415C12.5337 17.415 12.9745 16.9741 12.9746 16.4307V7.56738C12.9745 7.02396 12.5337 6.58301 11.9902 6.58301ZM19.5137 3.5C18.9703 3.50015 18.5294 3.94104 18.5293 4.48438V16.4307C18.5294 16.974 18.9703 17.4149 19.5137 17.415C20.0571 17.4149 20.498 16.9741 20.498 16.4307V4.48438C20.4979 3.94102 20.057 3.50011 19.5137 3.5Z" fill="#00838C"/>
</svg>
