<svg width="32" height="32" viewBox="0 0 32 32" fill="none" xmlns="http://www.w3.org/2000/svg">
<g clip-path="url(#clip0_17_144)">
<path d="M15.999 3.99512C22.6282 3.99536 28.002 9.36982 28.002 15.999C28.0017 22.628 22.628 28.0017 15.999 28.002C9.36983 28.002 3.99537 22.6282 3.99512 15.999C3.99512 9.36967 9.36967 3.99512 15.999 3.99512ZM15.999 5.99512C10.4742 5.99512 5.99512 10.4742 5.99512 15.999C5.99537 21.5236 10.4744 26.002 15.999 26.002C21.5234 26.0017 26.0017 21.5234 26.002 15.999C26.002 10.4744 21.5236 5.99536 15.999 5.99512ZM15.999 14.082C16.5511 14.0823 16.999 14.5299 16.999 15.082V20.583C16.999 21.1351 16.5511 21.5828 15.999 21.583C15.4468 21.583 14.9991 21.1353 14.999 20.583V15.082C14.999 14.5297 15.4467 14.082 15.999 14.082ZM15.999 10.2969C16.551 10.2971 16.9989 10.7449 16.999 11.2969V11.3311C16.9988 11.883 16.551 12.3308 15.999 12.3311C15.4469 12.3311 14.9992 11.8832 14.999 11.3311V11.2969C14.9992 10.7447 15.4468 10.2969 15.999 10.2969Z" fill="black"/>
</g>
<defs>
<clipPath id="clip0_17_144">
<rect width="32" height="32" fill="white"/>
</clipPath>
</defs>
</svg>
