<svg width="24" height="24" viewBox="0 0 24 24" fill="none" xmlns="http://www.w3.org/2000/svg">
<path d="M11.9932 2C17.5126 2 21.9862 6.47728 21.9863 11.999C21.9863 17.5208 17.5127 21.998 11.9932 21.998C6.47367 21.998 2.00004 17.5208 2 11.999C2.0001 6.47728 6.47371 2.00001 11.9932 2ZM11.9932 3.5C7.30302 3.50001 3.5001 7.30483 3.5 11.999C3.50004 16.6933 7.30298 20.498 11.9932 20.498C16.6833 20.498 20.4863 16.6933 20.4863 11.999C20.4862 7.30483 16.6833 3.5 11.9932 3.5ZM11.9932 10.4785C12.4073 10.4785 12.7431 10.8144 12.7432 11.2285V15.8525C12.7432 16.2667 12.4074 16.6025 11.9932 16.6025C11.579 16.6025 11.2432 16.2667 11.2432 15.8525V11.2285C11.2433 10.8144 11.579 10.4785 11.9932 10.4785ZM11.9932 6.85742C12.4072 6.85743 12.7428 7.19348 12.7432 7.60742V7.63574C12.7432 8.04995 12.4074 8.38574 11.9932 8.38574C11.579 8.38574 11.2432 8.04995 11.2432 7.63574V7.60742C11.2435 7.19348 11.5792 6.85743 11.9932 6.85742Z" fill="#00838C"/>
</svg>
